<?xml version="1.0" standalone="no"?>
<!DOCTYPE svg PUBLIC "-//W3C//DTD SVG 20010904//EN"
 "http://www.w3.org/TR/2001/REC-SVG-20010904/DTD/svg10.dtd">
<svg version="1.0" xmlns="http://www.w3.org/2000/svg"
 width="848.000000pt" height="848.000000pt" viewBox="0 0 848.000000 848.000000"
 preserveAspectRatio="xMidYMid meet">
<metadata>
Created by potrace 1.14, written by Peter Selinger 2001-2017
</metadata>
<g transform="translate(0.000000,848.000000) scale(0.100000,-0.100000)"
fill="#000000" stroke="none">
<path d="M2354 8254 c-71 -125 -144 -251 -162 -283 -18 -31 -37 -65 -42 -76
-6 -11 -22 -38 -35 -60 -14 -22 -31 -51 -38 -65 -6 -14 -14 -27 -17 -30 -6 -6
-31 -50 -61 -110 -13 -25 -29 -51 -36 -58 -7 -7 -13 -17 -13 -22 0 -11 -62
-113 -73 -121 -5 -3 -8 -10 -8 -15 0 -5 -55 -106 -123 -224 -68 -118 -205
-357 -304 -531 -99 -174 -190 -331 -201 -350 -12 -19 -24 -40 -27 -48 -4 -7
-29 -51 -56 -98 -26 -46 -48 -88 -48 -93 0 -6 -4 -10 -10 -10 -5 0 -10 -4 -10
-9 0 -4 -41 -80 -91 -167 -50 -88 -101 -175 -112 -194 -10 -19 -56 -98 -100
-175 -44 -77 -89 -156 -100 -175 -10 -19 -24 -44 -30 -55 -7 -11 -27 -45 -44
-76 l-33 -56 5 -524 c3 -288 8 -760 10 -1049 3 -289 7 -718 10 -955 2 -236 4
-467 4 -512 l1 -82 66 -38 c36 -21 78 -46 92 -55 15 -10 34 -21 42 -25 8 -4
80 -45 160 -93 80 -47 165 -97 190 -110 25 -14 47 -28 48 -32 2 -5 10 -8 18
-8 8 0 14 -4 14 -10 0 -5 5 -10 10 -10 6 0 43 -20 83 -44 40 -25 90 -52 110
-62 20 -10 37 -21 37 -26 0 -4 4 -8 10 -8 5 0 54 -27 108 -60 55 -33 102 -60
105 -60 4 0 23 -12 44 -26 21 -14 47 -30 58 -35 11 -5 36 -19 56 -32 20 -12
82 -49 138 -82 56 -33 110 -64 119 -70 9 -5 44 -25 77 -44 33 -19 79 -47 103
-63 23 -16 42 -26 42 -23 0 3 15 -5 33 -19 19 -15 37 -26 41 -26 4 0 26 -13
49 -28 23 -15 53 -33 67 -40 14 -7 34 -18 45 -25 11 -7 61 -36 110 -65 50 -29
97 -57 105 -62 39 -25 268 -157 293 -169 15 -8 27 -18 27 -23 0 -4 4 -8 10 -8
5 0 47 -23 94 -50 47 -27 89 -50 95 -50 5 0 11 -4 13 -8 2 -4 26 -21 53 -36
28 -16 124 -73 215 -126 91 -54 234 -138 319 -188 l155 -91 55 31 c31 17 110
64 176 103 l120 71 1 1469 c0 1257 2 1475 14 1503 8 17 18 32 22 32 5 0 8 5 8
10 0 8 85 165 120 220 5 8 31 53 57 100 26 47 53 94 60 105 7 11 15 26 19 34
4 8 32 57 61 109 29 51 53 97 53 102 0 5 4 10 8 12 4 2 34 50 66 108 122 218
304 541 316 560 6 8 25 42 42 74 18 32 38 66 43 75 6 9 41 72 79 141 39 69 73
127 78 128 4 2 8 7 8 11 0 8 47 94 109 201 17 30 39 71 49 90 9 19 20 37 23
40 3 3 19 30 36 60 16 30 40 73 53 95 12 22 32 58 43 80 12 22 24 42 27 45 3
3 11 16 18 30 7 14 28 52 48 85 19 33 38 68 41 78 3 9 9 17 14 17 5 0 9 6 9
13 0 7 7 22 15 34 13 18 18 20 40 10 14 -7 25 -15 25 -19 0 -5 5 -8 10 -8 6 0
27 -11 48 -23 20 -13 58 -35 83 -49 81 -45 94 -53 99 -58 3 -3 16 -11 30 -17
14 -7 48 -26 75 -43 28 -16 57 -33 65 -37 8 -4 49 -27 90 -51 41 -25 89 -53
105 -62 213 -121 531 -305 535 -310 3 -3 20 -12 38 -19 17 -8 32 -17 32 -22 0
-4 10 -11 23 -15 12 -4 45 -21 72 -38 28 -17 61 -37 75 -44 14 -7 52 -28 85
-47 l60 -34 3 -1475 2 -1476 63 38 c34 21 69 41 77 45 8 4 29 16 45 27 17 10
60 36 97 57 l68 38 -3 1549 -2 1549 -192 112 c-106 62 -199 117 -206 124 -8 6
-17 8 -20 4 -4 -3 -7 -1 -7 5 0 7 -4 12 -10 12 -5 0 -50 25 -100 55 -50 30
-94 55 -97 55 -4 0 -14 6 -22 14 -9 7 -41 26 -71 42 -30 16 -59 33 -65 37 -14
11 -331 195 -380 221 -22 12 -42 24 -45 27 -3 3 -25 16 -50 30 -25 13 -47 26
-50 29 -5 5 -12 9 -89 52 -58 33 -394 229 -421 247 -14 8 -28 14 -32 13 -5 -1
-8 3 -8 8 0 6 -4 10 -9 10 -5 0 -91 49 -192 108 -101 59 -240 141 -309 181
-69 40 -134 78 -145 84 -40 25 -92 55 -135 79 -25 14 -138 80 -253 147 -114
67 -223 130 -242 141 -19 11 -50 29 -69 39 -18 11 -44 25 -57 33 -13 7 -26 15
-29 19 -3 3 -32 20 -65 39 -87 48 -127 71 -157 89 -73 44 -121 71 -129 71 -5
0 -9 5 -9 10 0 6 -9 10 -19 10 -11 0 -21 4 -23 8 -1 5 -100 64 -218 132 -118
68 -232 134 -252 147 -21 12 -42 23 -48 23 -5 0 -10 4 -10 9 0 5 -9 13 -20 16
-11 4 -49 24 -85 46 -36 21 -67 39 -70 39 -3 0 -35 19 -72 43 -38 24 -72 45
-78 47 -5 1 -19 8 -30 15 -23 15 -199 116 -265 153 -25 14 -57 33 -72 43 -14
11 -28 19 -31 19 -3 0 -41 21 -84 46 -43 26 -93 55 -110 65 -18 11 -50 29 -70
40 -21 12 -51 30 -68 40 -16 10 -51 29 -76 43 l-47 25 -128 -225z"/>
<path d="M6285 3315 c-60 -36 -117 -70 -125 -75 -46 -29 -104 -60 -111 -60 -5
0 -9 -4 -9 -10 0 -5 -6 -10 -14 -10 -8 0 -21 -6 -28 -13 -7 -7 -38 -27 -68
-43 -30 -17 -86 -49 -124 -72 -37 -23 -70 -42 -72 -42 -2 0 -28 -16 -58 -35
-30 -19 -60 -35 -66 -35 -5 0 -10 -4 -10 -10 0 -5 -7 -10 -15 -10 -19 0 -39
-36 -25 -45 6 -4 7 -11 4 -17 -9 -15 -9 -232 0 -247 4 -6 4 -11 -1 -11 -7 0
-9 -384 -3 -400 1 -3 1 -9 0 -15 -6 -28 -5 -107 2 -111 4 -3 4 -12 1 -20 -9
-23 -10 -353 -1 -386 3 -16 4 -28 0 -28 -6 0 -8 -208 -2 -235 1 -5 1 -14 0
-20 -6 -29 -5 -107 2 -111 5 -3 5 -10 2 -16 -9 -14 -10 -169 -1 -175 4 -2 4
-9 1 -15 -10 -15 -11 -158 -1 -158 4 0 37 18 73 40 36 22 68 40 71 40 2 0 29
16 59 35 30 19 58 35 63 35 5 0 11 4 13 9 2 5 10 11 18 13 8 2 17 5 20 9 8 8
110 69 116 69 3 0 18 8 32 19 27 19 69 43 132 77 19 11 37 21 40 24 5 5 34 22
75 44 11 6 45 28 76 48 l56 36 0 996 c0 548 -3 996 -6 996 -3 0 -55 -29 -116
-65z"/>
</g>
</svg>
